#!OML:ASF H:\Terrain\Walking\May29\JustinRory\Justin.ASF
:FULLY-SPECIFIED
:DEGREES
65
root 8.93517 17.5946 5.13847 -164.12 -64.7093 169.439
lowerback 10.1224 -2.59464 -3.31956
upperback 4.12499 -3.97469 5.26692
thorax -0.746884 -2.21811 7.82251
lowerneck -2.43632 -13.9387 -15.5196
upperneck 13.5846 -20.4624 13.4304
head 7.55339 -10.0099 4.82751
rclavicle -1.66979e-014 -1.27222e-014
rhumerus -5.96029 -11.7462 -69.5091
rradius 70.6194
rwrist -41.8613
rhand -15.6757 23.188
rfingers 7.12502
rthumb 10.513 -6.52907
lclavicle -1.66979e-014 -1.27222e-014
lhumerus -3.13458 -34.1162 97.0421
lradius 48.5734
lwrist -1.07304
lhand -0.268954 37.5767
lfingers 7.12502
lthumb 25.3327 65.9142
rfemur -25.2541 -6.11096 6.37279
rtibia 36.7871
rfoot -11.2134 -3.06731
rtoes -13.9999
lfemur -13.4871 10.4969 -18.4321
ltibia 36.9787
lfoot -19.5023 4.86435
ltoes -9.63675
66
root 8.92776 17.5869 5.14367 -164.393 -64.5927 169.737
lowerback 10.0137 -2.65507 -3.08482
upperback 4.27061 -4.04823 5.27439
thorax -0.539985 -2.2672 7.68723
lowerneck -2.53604 -13.8342 -15.5452
upperneck 13.5327 -20.269 13.3725
head 7.52066 -9.9167 4.83618
rclavicle -1.59028e-014 2.8625e-014
rhumerus -5.8037 -11.7143 -69.8929
rradius 71.167
rwrist -41.5584
rhand -15.7638 23.0422
rfingers 7.12502
rthumb 10.4281 -6.6792
lclavicle -1.59028e-014 2.8625e-014
lhumerus -1.90334 -35.3916 96.6601
lradius 48.8035
lwrist -0.939347
lhand -0.998583 37.3229
lfingers 7.12502
lthumb 24.6336 65.7576
rfemur -25.3837 -6.25313 6.52246
rtibia 36.9425
rfoot -11.388 -2.96372
rtoes -13.7608
lfemur -13.6328 10.7455 -18.1751
ltibia 37.4022
lfoot -19.7017 4.22425
ltoes -9.77953
67
root 8.90771 17.5742 5.16522 -162.995 -64.6521 168.267
lowerback 9.81594 -2.6387 -3.23283
upperback 4.338 -4.02886 4.94995
thorax -0.379523 -2.25482 7.40436
lowerneck -2.7229 -13.9135 -14.8733
upperneck 13.5945 -20.335 12.9922
head 7.46881 -9.92857 4.60215
rclavicle -5.56597e-015 4.13472e-014
rhumerus -5.93598 -12.1475 -70.0513
rradius 71.6011
rwrist -41.3046
rhand -16.0513 22.857
rfingers 7.12502
rthumb 10.1506 -6.87817
lclavicle -5.56597e-015 4.13472e-014
lhumerus -0.669846 -37.3871 96.2504
lradius 48.923
lwrist -0.727553
lhand -0.925854 36.2571
lfingers 7.12502
lthumb 24.7033 64.6823
rfemur -25.4494 -6.84984 5.7671
rtibia 37.0813
rfoot -11.6145 -2.68535
rtoes -13.0596
lfemur -13.862 10.6143 -18.7962
ltibia 37.7633
lfoot -19.793 3.54151
ltoes -12.2962
68
root 8.89601 17.5664 5.19086 -162.238 -64.6981 167.375
lowerback 9.87951 -2.58434 -3.16629
upperback 4.37177 -3.94468 4.66245
thorax -0.419501 -2.20235 7.05389
lowerneck -2.76955 -14.0246 -14.2145
upperneck 13.608 -20.4862 12.7276
head 7.40301 -9.98376 4.40622
rclavicle 6.20208e-014 -6.04305e-014
rhumerus -6.22255 -12.7419 -70.241
rradius 72.2225
rwrist -40.8948
rhand -16.3131 22.1625
rfingers 7.12502
rthumb 9.89808 -7.58485
lclavicle 6.20208e-014 -6.04305e-014
lhumerus 0.505749 -39.4569 95.8545
lradius 48.9975
lwrist -0.588431
lhand -0.786894 36.1284
lfingers 7.12502
lthumb 24.8365 64.5353
rfemur -25.457 -7.12039 5.19618
rtibia 37.2615
rfoot -11.7259 -2.34987
rtoes -10.9475
lfemur -13.9103 10.4246 -19.1011
ltibia 37.9983
lfoot -19.7497 2.57834
ltoes -13.4415
69
root 8.88763 17.5557 5.21354 -162.412 -64.7129 167.583
lowerback 9.88241 -2.61325 -2.86199
upperback 4.38257 -3.95639 4.59024
thorax -0.435942 -2.20202 6.80294
lowerneck -2.68435 -14.008 -14.0924
upperneck 13.5821 -20.5107 12.8619
head 7.38529 -9.98868 4.4356
rclavicle 5.64548e-014 -1.74931e-014
rhumerus -6.4587 -13.0054 -70.4941
rradius 72.9353
rwrist -40.6433
rhand -16.3197 21.6919
rfingers 7.12502
rthumb 9.89177 -8.05573
lclavicle 5.64548e-014 -1.74931e-014
lhumerus 1.68237 -40.9773 95.457
lradius 49.0242
lwrist -0.462138
lhand -0.992377 36.2748
lfingers 7.12502
lthumb 24.6395 64.7087
rfemur -25.5792 -7.11196 5.16047
rtibia 37.4179
rfoot -11.731 -2.11884
rtoes -8.65108
lfemur -13.9991 10.1945 -18.8994
ltibia 38.2048
lfoot -19.9759 1.91581
ltoes -13.0062
70
root 8.88861 17.5447 5.20599 -163.583 -63.9976 168.433
lowerback 10.1102 -2.25643 -3.49898
upperback 4.64388 -3.5755 4.91111
thorax -0.274452 -2.05109 7.48614
lowerneck -2.59771 -14.0384 -14.203
upperneck 13.3834 -20.5009 12.7815
head 7.30772 -9.99653 4.43687
rclavicle -7.15625e-015 -6.36111e-015
rhumerus -6.44516 -12.9987 -70.3428
rradius 73.42
rwrist -40.7314
rhand -16.0858 21.7152
rfingers 7.12502
rthumb 10.1174 -8.02159
lclavicle -7.15625e-015 -6.36111e-015
lhumerus 3.0734 -42.2699 95.2403
lradius 49.1003
lwrist -0.216754
lhand -1.00363 36.1057
lfingers 7.12502
lthumb 24.6287 64.5411
rfemur -25.4133 -6.32347 5.42334
rtibia 37.5045
rfoot -11.7025 -2.22907
rtoes -10.4383
lfemur -13.4599 10.8083 -18.3446
ltibia 38.4122
lfoot -20.2482 1.57848
ltoes -13.6676
71
root 8.88842 17.5399 5.22074 -164.558 -63.6561 169.245
lowerback 10.1511 -2.00935 -4.1168
upperback 4.90891 -3.35071 5.56276
thorax 0.0319296 -1.99899 8.526
lowerneck -2.80261 -14.1533 -14.5265
upperneck 13.2671 -20.4476 12.1396
head 7.26122 -10.0031 4.27374
rclavicle -7.95139e-015 6.36111e-015
rhumerus -6.13675 -12.7869 -69.6878
rradius 73.823
rwrist -40.9067
rhand -15.8234 21.499
rfingers 7.12502
rthumb 10.3705 -8.22529
lclavicle -7.95139e-015 6.36111e-015
lhumerus 4.6736 -43.2845 95.3454
lradius 49.2479
lwrist 0.0631343
lhand -0.681804 36.2101
lfingers 7.12502
lthumb 24.9372 64.6031
rfemur -25.3022 -6.05114 5.75029
rtibia 37.4554
rfoot -11.5501 -2.34678
rtoes -13.0795
lfemur -13.2264 11.0204 -17.7621
ltibia 38.7156
lfoot -19.9871 1.14726
ltoes -11.089
72
root 8.88407 17.5377 5.25243 -164.614 -63.4064 169.104
lowerback 10.4212 -1.96632 -4.28002
upperback 4.96964 -3.32434 5.60756
thorax -0.0428461 -1.99356 8.68336
lowerneck -3.26517 -14.1182 -14.5206
upperneck 13.7372 -20.2987 11.5757
head 7.40912 -9.93849 4.07522
rclavicle -3.49861e-014 -4.13472e-014
rhumerus -6.26 -12.2824 -69.4269
rradius 74.4282
rwrist -41.3997
rhand -15.8735 21.2182
rfingers 7.12502
rthumb 10.3222 -8.50845
lclavicle -3.49861e-014 -4.13472e-014
lhumerus 5.79632 -44.2642 95.0551
lradius 49.4764
lwrist 0.213343
lhand -0.240191 36.5218
lfingers 7.12502
lthumb 25.3603 64.8554
rfemur -25.1727 -6.03167 5.51396
rtibia 37.2701
rfoot -11.2909 -2.19931
rtoes -13.7029
lfemur -13.1346 10.9884 -17.7167
ltibia 39.0674
lfoot -19.8327 0.831995
ltoes -7.47356
73
root 8.87638 17.5267 5.27741 -164.638 -63.0818 169.108
lowerback 10.7456 -1.99873 -3.77315
upperback 4.75184 -3.29022 5.05063
thorax -0.526255 -1.9193 7.8066
lowerneck -3.22745 -13.9967 -14.0156
upperneck 14.2122 -20.2786 11.6045
head 7.50317 -9.91149 4.01549
rclavicle -2.62396e-014 2.54444e-014
rhumerus -7.19952 -12.0854 -70.0154
rradius 75.2576
rwrist -42.1418
rhand -15.64 21.4235
rfingers 7.12502
rthumb 10.5474 -8.29182
lclavicle -2.62396e-014 2.54444e-014
lhumerus 6.15033 -45.5484 94.3792
lradius 49.8153
lwrist 0.176822
lhand -0.0585987 36.7155
lfingers 7.12502
lthumb 25.5342 65.0243
rfemur -25.1681 -5.64877 5.25881
rtibia 36.9622
rfoot -10.9787 -2.05695
rtoes -12.255
lfemur -13.1992 11.1471 -17.6358
ltibia 39.4727
lfoot -19.8875 1.27725
ltoes -9.2755
74
root 8.86156 17.5176 5.30736 -164.879 -63.1904 169.56
lowerback 10.5754 -2.16969 -3.63986
upperback 4.62557 -3.49592 5.21211
thorax -0.529388 -2.01868 7.91714
lowerneck -2.6893 -14.0045 -14.5786
upperneck 13.9217 -20.3521 11.9691
head 7.42624 -9.97883 4.2381
rclavicle -6.20208e-014 4.13472e-014
rhumerus -7.59238 -12.1602 -70.2803
rradius 75.9572
rwrist -42.3034
rhand -14.7679 21.5902
rfingers 7.12502
rthumb 11.3886 -8.08055
lclavicle -6.20208e-014 4.13472e-014
lhumerus 6.84933 -46.0109 94.3971
lradius 50.0882
lwrist -0.0511147
lhand -0.231881 36.9739
lfingers 7.12502
lthumb 25.3683 65.3064
rfemur -25.2479 -5.61079 5.31318
rtibia 36.6238
rfoot -10.6972 -1.96024
rtoes -9.81085
lfemur -13.4581 11.0115 -17.2545
ltibia 39.8069
lfoot -19.6686 2.00338
ltoes -10.7782
75
root 8.827 17.5193 5.37419 -163.924 -64.3072 168.668
lowerback 10.1679 -2.78691 -4.10518
upperback 4.62816 -4.38231 5.90145
thorax -0.0574302 -2.51527 8.98547
lowerneck -2.96676 -13.7037 -15.5444
upperneck 13.6909 -19.684 11.5986
head 7.36716 -9.70914 4.33167
rclavicle -1.51076e-014 7.31528e-014
rhumerus -6.95234 -11.5989 -69.6515
rradius 76.0797
rwrist -42.0137
rhand -14.3775 21.3912
rfingers 7.12502
rthumb 11.7651 -8.2584
lclavicle -1.51076e-014 7.31528e-014
lhumerus 8.0223 -45.4246 94.9902
lradius 50.2849
lwrist -0.377135
lhand 0.00699314 37.2492
lfingers 7.12502
lthumb 25.5971 65.549
rfemur -24.9354 -6.91321 4.88708
rtibia 36.2628
rfoot -10.5476 -2.00254
rtoes -8.33505
lfemur -13.8897 9.50522 -17.4113
ltibia 40.1382
lfoot -19.3566 2.68458
ltoes -9.24125
76
root 8.81251 17.5204 5.39053 -163.826 -64.3237 168.45
lowerback 10.016 -2.94324 -5.05099
upperback 4.72807 -4.70044 6.29378
thorax 0.313743 -2.73251 9.97954
lowerneck -3.00641 -13.4647 -16.0512
upperneck 13.5234 -19.2399 11.4369
head 7.29173 -9.52771 4.41416
rclavicle 9.54166e-015 3.02153e-014
rhumerus -6.40935 -10.974 -69.2522
rradius 75.9657
rwrist -41.6595
rhand -14.6379 21.1994
rfingers 7.12502
rthumb 11.514 -8.46432
lclavicle 9.54166e-015 3.02153e-014
lhumerus 8.83457 -44.9923 95.241
lradius 50.5552
lwrist -0.655477
lhand 0.780353 36.5244
lfingers 7.12502
lthumb 26.3376 64.7156
rfemur -24.6911 -6.71279 4.68019
rtibia 36.0171
rfoot -10.5212 -2.49932
rtoes -7.32808
lfemur -13.803 9.41511 -17.2257
ltibia 40.4348
lfoot -19.1998 3.3521
ltoes -9.27479
77
root 8.79354 17.5185 5.41135 -164.754 -64.6195 169.382
lowerback 9.942 -3.16745 -4.9264
upperback 4.77662 -5.01141 6.56228
thorax 0.487677 -2.91248 10.2166
lowerneck -3.08669 -13.3538 -16.2806
upperneck 13.5609 -19.017 11.2185
head 7.28655 -9.44135 4.40228
rclavicle 2.22639e-014 1.59028e-014
rhumerus -6.34527 -10.5337 -69.1533
rradius 76.2921
rwrist -41.7532
rhand -14.6129 21.4012
rfingers 7.12502
rthumb 11.538 -8.26124
lclavicle 2.22639e-014 1.59028e-014
lhumerus 9.42465 -44.8168 95.2971
lradius 50.9254
lwrist -1.0936
lhand 1.25155 35.1865
lfingers 7.12502
lthumb 26.7886 63.3094
rfemur -24.2646 -6.78378 5.05066
rtibia 35.8537
rfoot -10.7589 -2.503
rtoes -6.15904
lfemur -13.716 9.27408 -16.4477
ltibia 40.6998
lfoot -18.8924 4.25064
ltoes -8.57539
78
root 8.76867 17.5258 5.46035 -164.855 -64.4969 169.65
lowerback 9.75001 -3.24268 -4.83901
upperback 4.72396 -5.09946 6.63303
thorax 0.555106 -2.95756 10.2346
lowerneck -3.30302 -13.3478 -16.3181
upperneck 13.5931 -18.9075 10.882
head 7.28829 -9.40015 4.30087
rclavicle -5.48646e-014 8.90555e-014
rhumerus -6.613 -10.4499 -69.0557
rradius 76.915
rwrist -42.0256
rhand -14.2106 21.6355
rfingers 7.12502
rthumb 11.926 -8.00478
lclavicle -5.48646e-014 8.90555e-014
lhumerus 10.0603 -45.0409 95.2529
lradius 51.3404
lwrist -1.32662
lhand 1.40082 34.7263
lfingers 7.12502
lthumb 26.9314 62.8273
rfemur -24.1444 -7.38851 5.05163
rtibia 35.6283
rfoot -10.7987 -1.86285
rtoes -7.90556
lfemur -13.8651 9.00735 -16.2732
ltibia 40.9927
lfoot -18.5752 5.3302
ltoes -6.46068
